<?xml version="1.0" encoding="UTF-8" standalone="no"?>
<svg
   xmlns:dc="http://purl.org/dc/elements/1.1/"
   xmlns:cc="http://creativecommons.org/ns#"
   xmlns:rdf="http://www.w3.org/1999/02/22-rdf-syntax-ns#"
   xmlns:svg="http://www.w3.org/2000/svg"
   xmlns="http://www.w3.org/2000/svg"
   xmlns:sodipodi="http://sodipodi.sourceforge.net/DTD/sodipodi-0.dtd"
   xmlns:inkscape="http://www.inkscape.org/namespaces/inkscape"
   version="1.0"
   width="476px"
   height="321px"
   viewBox="0 0 4760 3210"
   preserveAspectRatio="xMidYMid meet"
   id="svg905"
   sodipodi:docname="logo.svg"
   inkscape:version="0.92.4 (5da689c313, 2019-01-14)">
  <metadata
     id="metadata911">
    <rdf:RDF>
      <cc:Work
         rdf:about="">
        <dc:format>image/svg+xml</dc:format>
        <dc:type
           rdf:resource="http://purl.org/dc/dcmitype/StillImage" />
        <dc:title></dc:title>
      </cc:Work>
    </rdf:RDF>
  </metadata>
  <defs
     id="defs909" />
  <sodipodi:namedview
     pagecolor="#ffffff"
     bordercolor="#666666"
     borderopacity="1"
     objecttolerance="10"
     gridtolerance="10"
     guidetolerance="10"
     inkscape:pageopacity="0"
     inkscape:pageshadow="2"
     inkscape:window-width="1366"
     inkscape:window-height="705"
     id="namedview907"
     showgrid="false"
     inkscape:zoom="1.1807141"
     inkscape:cx="226.02302"
     inkscape:cy="134.7996"
     inkscape:window-x="-8"
     inkscape:window-y="-8"
     inkscape:window-maximized="1"
     inkscape:current-layer="svg905" />
  <path
     style="opacity:1;fill:#50aab2;fill-opacity:1;stroke:#3984f3;stroke-width:2.52935863;stroke-miterlimit:4;stroke-dasharray:none;stroke-opacity:0"
     d="m 1646.6818,1142.8842 c -14.3372,-30.1525 -51.585,-111.0757 -82.7731,-179.82909 -31.1881,-68.75352 -62.7439,-138.25881 -70.124,-154.4562 l -13.4186,-29.44982 28.3672,-67.77739 C 1572.1937,559.7468 1621.917,464.20098 1692.2339,358.7669 1760.9782,255.69091 1831.8908,174.956 1933.9051,83.621787 l 43.7613,-39.1796 10.5347,2.34746 c 96.819,21.57279 191.1802,53.387993 317.3684,107.005313 59.0824,25.104 142.4852,66.66138 154.0483,76.75801 l 8.8388,7.71787 -8.8388,7.66171 c -4.8612,4.21402 -20.2031,13.46891 -34.0925,20.56649 -64.2111,32.8117 -114.3005,64.6569 -180.565,114.7974 -109.0375,82.50561 -209.7302,180.70893 -283.1898,276.1877 -95.856,124.58861 -196.1139,307.95837 -269.9387,493.71196 -9.9363,25.0013 -18.2948,45.6941 -18.5744,45.984 -0.28,0.291 -12.2386,-24.1432 -26.5756,-54.2957 z"
     id="path3673"
     inkscape:connector-curvature="0" />
  <path
     style="opacity:1;fill:#50aab2;fill-opacity:1;stroke:#3984f3;stroke-width:0.63233948;stroke-miterlimit:4;stroke-dasharray:none;stroke-opacity:0"
     d="M 2239.263,930.483 V 781.1962 h 109.8542 109.8539 v 112.85299 112.85301 l -28.2497,5.8924 c -15.5369,3.241 -33.2209,7.1294 -39.2977,8.6409 -31.1365,7.7455 -70.8064,21.1008 -91.8905,30.9359 -5.0717,2.366 -37.0152,16.8951 -56.318,25.6156 l -3.9458,1.7828 z"
     id="path3675"
     inkscape:connector-curvature="0" />
  <path
     style="opacity:1;fill:#50aab2;fill-opacity:1;stroke:#3984f3;stroke-width:0.63233948;stroke-miterlimit:4;stroke-dasharray:none;stroke-opacity:0"
     d="m 2723.5048,1009.744 c -1.217,-0.638 -3.6888,-2.4302 -5.4936,-3.9827 -3.6963,-3.1771 -4.7418,-3.4481 -19.7601,-5.1218 -29.2142,-3.25609 -65.6096,-4.60929 -144.0986,-5.35799 -26.9946,-0.257 -49.2076,-0.5949 -49.3626,-0.7498 -0.264,-0.2646 -6.0619,-200.91382 -6.0495,-209.3899 l 0.01,-3.9459 h 115.2204 115.2204 l -0.02,62.02968 c -0.02,96.36022 -1.2662,165.58301 -3.0047,167.24651 -0.265,0.238 -1.4438,-0.09 -2.6608,-0.728 z"
     id="path3677"
     inkscape:connector-curvature="0" />
  <path
     style="opacity:1;fill:#50aab2;fill-opacity:1;stroke:#3984f3;stroke-width:0.63233948;stroke-miterlimit:4;stroke-dasharray:none;stroke-opacity:0"
     d="m 2554.9356,740.4095 c -31.1316,-1.63086 -45.6189,-3.60378 -48.3122,-6.58 -2.2677,-2.50394 -4.162,-15.62551 -5.3798,-37.2336 -1.0961,-19.4521 -1.4816,-81.27228 -0.673,-107.64431 1.3681,-44.51861 4.0467,-73.99548 6.9909,-76.93977 5.0189,-5.01884 80.439,45.15307 129.7626,86.32237 25.1421,20.98541 41.8552,38.70179 58.8703,62.40419 17.0441,23.74262 30.3632,50.42521 32.2378,64.58382 0.34,2.43061 0.461,4.75241 0.302,5.15951 -1.3417,3.53688 -23.7861,6.56719 -67.4215,9.10287 -10.6696,0.6199 -97.446,1.29298 -106.3816,0.8251 z"
     id="path3679"
     inkscape:connector-curvature="0" />
  <path
     style="opacity:1;fill:#50aab2;fill-opacity:1;stroke:#3984f3;stroke-width:0.63233948;stroke-miterlimit:4;stroke-dasharray:none;stroke-opacity:0"
     d="m 2238.0037,740.0009 c 0.01,-2.04057 8.3444,-32.49782 10.0917,-36.8747 19.6097,-49.1215 93.976,-123.91442 166.6817,-167.63762 8.2549,-4.96429 43.2102,-24.50819 43.8342,-24.50819 0.189,0 0.378,51.70722 0.378,114.90489 V 740.7901 h -110.4854 c -87.9692,0 -110.4846,-0.1625 -110.482,-0.7892 z"
     id="path3681"
     inkscape:connector-curvature="0" />
  <path
     style="opacity:1;fill:#082b4c;fill-opacity:1;stroke:#3984f3;stroke-width:4.17322826;stroke-miterlimit:4;stroke-dasharray:none;stroke-opacity:0"
     d="m 1495.0281,2181.6611 c 1.8757,-92.3296 10.9466,-152.0036 36.2697,-238.6032 44.6154,-152.5742 121.6833,-293.5313 235.3889,-430.5255 l 26.252,-31.6286 -37.9203,-57.9546 c -105.1911,-160.767 -220.026,-376.049 -220.026,-412.4849 0,-11.75179 3.4594,-5.5258 31.1314,56.0301 31.7632,70.6558 78.5279,156.1169 127.535,233.0663 37.6758,59.1571 112.1606,163.061 117.0244,163.2454 1.5258,0.06 20.2759,-15.0918 41.6665,-33.6655 153.1998,-133.0244 321.1367,-216.7409 522.8856,-260.6589 51.7459,-11.2642 57.5527,-11.6504 176.4238,-11.7342 193.7938,-0.136 290.5652,15.8506 426.4694,70.4535 98.1079,39.4176 160.2641,73.6266 216.6444,119.2356 35.9758,29.1025 36.0526,29.1388 36.0526,16.9836 0,-6.6995 -3.7531,-34.3985 -8.3437,-61.5535 -41.9656,-248.3127 -171.8699,-526.46659 -350.0077,-749.44519 -35.7611,-44.76261 -121.4347,-139.8344 -140.0912,-155.45862 -7.313,-6.12428 -34.5611,-30.079 -60.5518,-53.23269 C 2551.7634,236.76768 2445.2972,166.21199 2312.1387,105.36009 2242.5463,73.557287 2119.4316,31.649022 2076.3378,25.093392 c -52.3699,-7.9666 -52.7188,-8.0665 -44.4004,-12.72159 9.2821,-5.1943895 83.0589,4.19849 150.9717,19.22102 514.382,113.782978 1033.6445,648.500188 1174.4081,1209.361478 61.0549,243.2689 51.476,482.8749 -25.4472,636.5401 -32.5515,65.0256 -94.0452,135.5645 -153.1351,175.6603 -138.0971,93.7061 -337.1531,112.0921 -554.3395,51.2018 -209.2426,-58.6633 -418.2713,-191.6953 -640.2244,-407.4577 l -52.9043,-51.4289 -24.1788,17.2903 c -46.8457,33.499 -104.6305,83.8171 -149.6031,130.2718 -122.7727,126.8193 -196.7526,253.5644 -253.5916,434.4624 l -10.4734,33.3334 z m 1371.2143,-178.9183 c 94.9342,-21.6883 152.7073,-50.1439 203.7045,-100.3329 34.1574,-33.6156 46.0815,-58.9204 46.1015,-97.8322 0.02,-42.2206 -13.8886,-70.2181 -56.0561,-112.8269 -79.5798,-80.4123 -228.8987,-151.6574 -378.2808,-180.4904 -73.2684,-14.142 -131.1163,-19.1827 -220.1461,-19.1827 -86.987,0 -151.3062,7.1122 -224.8725,24.8656 -53.0075,12.792 -143.1473,40.5013 -148.738,45.7223 -4.8264,4.5075 96.9275,101.3903 145.1184,138.1714 114.9169,87.7087 246.6621,162.5683 361.717,205.5323 22.5763,8.4305 70.3888,22.754 106.2501,31.8299 35.8609,9.076 71.7645,19.3534 79.7851,22.8387 14.4397,6.2744 14.296,6.3134 -14.583,3.9487 -44.79,-3.6672 -143.8189,-24.7319 -206.2616,-43.8742 -160.2346,-49.121 -302.7508,-126.0012 -456.2385,-246.1177 -90.4596,-70.7918 -102.5934,-76.2346 -124.5608,-55.8758 -9.1676,8.4961 -10.4016,11.8558 -6.8156,18.556 11.3121,21.1366 191.0634,164.5951 258.2396,206.0992 134.6824,83.2121 266.1158,138.9107 369.5913,156.6244 116.7145,19.9801 186.1712,20.5922 266.0455,2.3445 z"
     id="path3691"
     inkscape:connector-curvature="0" />
  <path
     style="opacity:1;fill:#81858e;fill-opacity:1;stroke:#3984f3;stroke-width:2.95091772;stroke-miterlimit:4;stroke-dasharray:none;stroke-opacity:0"
     d="m 1456.4647,2193.7808 c -23.6671,-79.4693 -56.3568,-250.842 -72.076,-377.8509 -18.2022,-147.0697 -23.5813,-246.8727 -21.5113,-399.1168 1.9461,-143.1456 6.0508,-189.5452 28.9303,-327.0369 15.5101,-93.20589 39.7388,-198.87369 45.6001,-198.87369 2.6762,0 17.0995,34.13858 44.871,106.2062 34.2999,89.00839 56.184,140.31359 91.0532,213.46499 30.3774,63.7282 41.8864,92.6098 41.984,105.3569 0.03,4.4714 -14.4188,65.4593 -32.1176,135.5288 -17.6989,70.0694 -37.6457,153.9155 -44.3262,186.3245 -30.6381,148.6342 -53.4556,318.6785 -69.3645,516.9311 -2.5297,31.5213 -5.1209,57.8332 -5.7587,58.4711 -0.638,0.638 -3.9159,-8.0945 -7.2843,-19.4053 z"
     id="path3697"
     inkscape:connector-curvature="0" />
  <path
     style="opacity:1;fill:#082b4c;fill-opacity:1;stroke:#3984f3;stroke-width:1.04330683;stroke-miterlimit:4;stroke-dasharray:none;stroke-opacity:0"
     d="m 69.202453,2766.3856 v -205.2085 l 48.697927,0.03 c 58.89487,0.04 110.55999,1.4377 133.0729,3.6105 83.82478,8.0906 118.69089,30.9581 135.32678,88.7558 9.0322,31.3803 9.02563,62.9329 -0.02,90.6531 -8.5948,26.3414 -20.52779,42.7986 -49.20609,67.8618 -10.33421,9.0315 -12.9521,13.1697 -12.88739,20.372 0.091,10.3884 6.32987,20.7235 39.33569,65.187 25.80737,34.7664 45.26249,63.6102 45.26249,67.1052 0,1.0923 -11.24031,3.7077 -20.3125,4.7278 -13.97091,1.5723 -40.64088,1.3342 -49.95031,-0.45 -18.69941,-3.5792 -25.5871,-10.4122 -61.0797,-60.6077 -20.78109,-29.3896 -28.74648,-39.6752 -37.15899,-47.983 -7.85651,-7.759 -18.25221,-13.2197 -29.41509,-15.4515 -6.04701,-1.2094 -60.49481,-5.9391 -61.0611,-5.3049 -0.0718,0.08 -1.42526,28.2633 -3.01606,62.6385 -1.59081,34.3748 -3.06822,62.705 -3.2829,62.9552 -0.31748,0.378 -66.318917,6.0722 -72.483587,6.26 -1.73027,0.04 -1.82287,-10.3895 -1.82287,-205.1528 z m 196.538307,-7.6003 c 23.46271,-4.3593 34.8076,-10.4031 43.01791,-22.916 15.36608,-23.4195 13.2302,-61.8652 -4.53472,-81.6242 -9.57777,-10.6526 -28.92408,-16.5645 -65.75066,-20.0916 -12.27353,-1.1754 -83.60622,-6.3095 -87.66664,-6.3095 h -2.43741 v 66.7544 66.7544 l 54.42701,-0.491 c 42.57751,-0.385 56.28151,-0.835 62.94459,-2.0749 z"
     id="path3703"
     inkscape:connector-curvature="0" />
  <path
     style="opacity:1;fill:#082b4c;fill-opacity:1;stroke:#3984f3;stroke-width:1.04330683;stroke-miterlimit:4;stroke-dasharray:none;stroke-opacity:0"
     d="m 606.15945,2969.4086 c -30.0226,-3.1673 -55.61337,-12.4207 -74.31469,-26.874 -39.1733,-30.2751 -63.00628,-88.622 -58.5766,-143.4043 2.59314,-32.0674 8.60992,-52.2206 21.12722,-70.7656 5.02987,-7.4521 26.36009,-29.5541 36.75409,-38.0841 51.19329,-42.0132 107.77841,-47.2713 170.69281,-15.8623 6.28508,3.137 14.48828,7.6887 18.22919,10.1133 31.385,20.3422 48.21569,49.7405 54.61459,95.3956 1.36856,9.7645 5.79541,62.2103 5.825,69.0104 0.007,1.7197 -4.67161,1.8256 -83.5858,1.8407 -103.44911,0.02 -128.24039,1.1641 -140.6665,6.4743 -5.48451,2.3433 -6.9897,4.2803 -6.9897,8.9945 0,4.5793 1.50992,7.8293 5.89001,12.6773 11.39411,12.6119 37.67131,25.6883 61.62599,30.6671 21.26419,4.4194 46.81909,-0.593 76.50301,-15.0013 22.20268,-10.7781 27.0765,-11.6799 35.20411,-6.5121 7.87139,5.0048 20.4497,18.531 24.06897,25.8829 3.0293,6.1531 3.17896,6.9521 2.02583,10.8008 -2.51679,8.4007 -11.88162,15.8101 -34.00282,26.9026 -19.68238,9.8699 -37.92159,14.9904 -63.5026,17.8288 -10.92068,1.2095 -39.06879,1.1641 -50.92211,-0.08 z m 74.16752,-180.4883 c 20.36399,-2.7931 29.35869,-5.8345 29.35869,-9.9315 0,-10.2573 -23.28918,-39.4473 -38.5418,-48.3069 -26.52288,-15.4065 -63.2877,-14.5674 -91.5591,2.0901 -16.61869,9.7916 -36.51488,34.3767 -36.55548,45.1706 -0.02,6.4252 9.66898,9.7206 36.44811,12.3908 14.75569,1.4703 87.21539,0.457 100.84958,-1.4135 z"
     id="path3705"
     inkscape:connector-curvature="0" />
  <path
     style="opacity:1;fill:#082b4c;fill-opacity:1;stroke:#3984f3;stroke-width:1.04330683;stroke-miterlimit:4;stroke-dasharray:none;stroke-opacity:0"
     d="m 1289.7675,2916.7208 c -0.01,-30.2627 -0.483,-64.1635 -1.0617,-75.3354 -3.572,-69.0044 -14.6157,-104.0508 -36.2413,-115.0091 -20.312,-10.2928 -52.6481,-6.5307 -75.5558,8.7911 -9.9769,6.6728 -24.6727,21.9931 -28.5925,29.8073 -3.5426,7.062 -5.9167,15.9855 -7.5814,28.4942 -0.752,5.6542 -1.3621,39.2527 -1.6864,92.9688 l -0.508,84.1146 h -34.145 -34.145 l -0.591,-78.9064 c -0.774,-103.3553 -2.2624,-120.4558 -12.3301,-141.6805 -7.5828,-15.9862 -20.2028,-25.084 -39.0723,-28.1677 -8.8661,-1.4475 -10.6837,-1.44 -20.16461,0.113 -18.2522,2.9972 -34.9056,11.7158 -47.4414,24.8406 -7.186,7.5235 -10.0024,12.7566 -12.8281,23.836 -3.8427,15.067 -4.9911,32.9673 -8.6352,134.5954 l -2.3437,65.3646 H 893.2067 859.56939 v -154.6877 -154.6874 l 17.96871,0.04 c 33.70899,0.08 45.61539,2.2715 49.05229,9.0898 0.791,1.5685 1.7242,6.7252 2.0731,11.4568 0.7132,9.6783 1.9026,12.7514 4.9357,12.7514 3.2451,0 11.513,-4.512 29.8506,-16.2909 9.2956,-5.9709 20.0769,-12.2827 23.9584,-14.0258 17.84281,-8.0145 38.95361,-11.5162 56.87261,-9.4333 27.3874,3.1823 44.5957,12.1054 68.9427,35.7433 l 13.7706,13.3697 19.3936,-14.451 c 20.061,-14.9488 29.9964,-20.8112 43.3902,-25.6033 36.9721,-13.2279 81.1046,-10.4591 110.0976,6.9075 13.1151,7.8554 29.0237,25.6944 37.4675,42.0132 13.4361,25.9673 20.0726,63.8287 20.1728,115.0863 0.04,18.3938 -3.1306,131.8991 -3.7709,135.1581 -0.58,2.9556 -0.381,2.9178 -29.0712,5.4403 -13.1771,1.1565 -26.4193,2.3773 -29.4271,2.7137 l -5.4688,0.609 -0.01,-55.0227 z"
     id="path3709"
     inkscape:connector-curvature="0" />
  <path
     style="opacity:1;fill:#082b4c;fill-opacity:1;stroke:#3984f3;stroke-width:1.04330683;stroke-miterlimit:4;stroke-dasharray:none;stroke-opacity:0"
     d="m 1576.8464,2969.4743 c -6.8824,-1.0053 -16.5609,-3.8403 -18.863,-5.5237 -2.614,-1.9125 -5.2852,-7.8826 -14.3725,-32.1294 -28.3287,-75.5872 -107.5353,-306.0907 -121.9777,-354.9739 l -2.295,-7.7674 2.2035,-1.7843 c 3.1672,-2.5648 11.2696,-4.0351 22.234,-4.0351 11.4381,0 48.9248,2.993 49.9202,3.9857 0.387,0.386 10.069,27.1861 21.5154,59.5561 42.3156,119.6663 72.2989,198.9581 75.234,198.9581 3.4374,0 17.6048,-36.1152 35.1415,-89.5831 4.6038,-14.0368 18.779,-59.0366 31.5005,-100.0002 12.7216,-40.9633 23.3194,-74.6847 23.5507,-74.936 0.525,-0.57 28.5543,1.7923 38.3958,3.2357 22.306,3.2719 27.3139,12.6518 58.3019,109.2004 25.5288,79.5394 45.6044,138.215 50.7249,148.2542 3.2164,6.3035 4.3801,4.7142 15.3589,-20.9529 12.7657,-29.8451 26.4544,-67.9038 62.0844,-172.6137 11.3068,-33.2292 20.8516,-60.7359 21.2107,-61.1258 0.922,-1.0012 37.996,-3.9796 49.4498,-3.9727 11.2675,0.01 16.6666,1.3009 20.2095,4.8441 2.2866,2.2866 2.5172,3.1846 1.9389,7.5536 -2.0598,15.535 -31.6501,105.6992 -95.17,289.9992 l -36.1909,105.007 -26.5625,-0.34 c -25.3961,-0.302 -26.8043,-0.435 -32.0704,-2.8082 -14.7833,-6.6682 -23.5618,-26.1547 -46.6022,-103.4487 -5.5155,-18.5026 -13.32,-44.4226 -17.3434,-57.5996 -13.4581,-44.0768 -28.157,-82.7429 -33.9593,-89.3314 -1.5387,-1.7461 -1.7057,-1.7461 -3.6378,0 -3.8292,3.4621 -10.5122,20.1324 -13.8063,34.4376 -4.9359,21.434 -31.6805,111.4692 -51.4257,173.1231 l -14.5117,45.3124 -22.2278,0.151 c -12.2252,0.08 -24.8059,-0.227 -27.9569,-0.695 z"
     id="path3711"
     inkscape:connector-curvature="0" />
  <path
     style="opacity:1;fill:#082b4c;fill-opacity:1;stroke:#3984f3;stroke-width:1.04330683;stroke-miterlimit:4;stroke-dasharray:none;stroke-opacity:0"
     d="m 2175.2979,2968.4762 c -32.4121,-2.7175 -56.1184,-15.3699 -78.0344,-41.6455 -26.5308,-31.8093 -47.4195,-80.5633 -47.4195,-110.6786 0,-17.2301 8.1869,-44.5141 21.3408,-71.1209 23.9225,-48.3889 59.3571,-76.3819 110.951,-87.6495 13.5731,-2.9631 48.6176,-2.7061 63.2172,0.461 20.4941,4.4504 39.8948,12.6509 57.7356,24.4041 13.4858,8.8841 33.7331,29.1942 42.8584,42.9913 8.1653,12.3459 18.2033,32.7587 22.5384,45.8336 10.2641,30.954 10.4327,62.6536 0.48,90.3474 -8.9661,24.9524 -23.6564,45.9545 -51.9329,74.2469 -21.0599,21.0716 -28.9943,25.5144 -52.0419,29.1413 -20.7125,3.2579 -70.3581,5.2894 -89.6938,3.6661 z m 56.8377,-60.5598 c 10.4092,-2.6116 33.3509,-14.0515 41.0422,-20.4665 9.2338,-7.7019 15.8264,-16.261 21.4398,-27.8351 7.4377,-15.3366 8.843,-21.8657 8.8569,-41.1458 0.01,-18.9782 -1.6592,-26.679 -9.7364,-44.7757 -14.7243,-32.9979 -34.6526,-48.2903 -67.979,-52.1647 -42.5208,-4.9432 -76.6616,14.0005 -94.7334,52.5646 -13.6906,29.2142 -12.7968,63.9934 2.2979,89.5083 10.6156,17.9421 31.9616,33.9254 57.1438,42.7884 14.3841,5.0623 25.8902,5.4837 41.6667,1.5269 z"
     id="path3713"
     inkscape:connector-curvature="0" />
  <path
     style="opacity:1;fill:#082b4c;fill-opacity:1;stroke:#3984f3;stroke-width:1.04330683;stroke-miterlimit:4;stroke-dasharray:none;stroke-opacity:0"
     d="m 2582.3372,2970.46 c -28.9399,-2.3886 -54.2695,-10.3222 -74.1933,-23.2399 -12.5658,-8.1468 -30.1841,-25.9559 -39.3438,-39.7689 -12.0362,-18.1512 -21.0255,-39.8608 -25.847,-62.4197 -3.1975,-14.965 -3.9326,-44.2953 -1.4778,-59.0502 3.5074,-21.103 10.6137,-38.733 23.0283,-57.1442 23.6935,-35.1383 46.3423,-54.6021 74.3951,-63.933 19.6898,-6.5491 26.787,-7.3799 62.5001,-7.316 35.3481,0.08 43.2911,1.0583 61.6449,7.7359 21.8479,7.9469 47.4867,30.2363 66.2041,57.5551 30.0465,43.8542 38.3043,98.4767 22.1866,146.7575 -7.5236,22.5381 -17.4562,38.9053 -34.0661,56.1369 -26.832,27.8359 -55.9438,41.0147 -98.7821,44.7183 -13.9661,1.2057 -21.3108,1.2019 -36.2479,-0.03 z m 38.341,-65.5355 c 22.8076,-5.8329 45.9693,-21.6045 55.6146,-37.8701 9.2088,-15.5289 14.1407,-38.5054 13.3357,-62.1271 -0.797,-23.4365 -5.5234,-37.1803 -17.2267,-50.1131 -21.1404,-23.3605 -62.609,-38.6563 -88.9281,-32.801 -15.1204,3.3637 -29.8504,12.1315 -43.2821,25.7624 -10.5747,10.7312 -16.2066,18.5208 -22.1159,30.5892 -8.722,17.8118 -10.9232,31.8939 -7.9842,51.0799 6.4664,42.2132 37.5802,72.9948 78.8062,77.9649 6.9195,0.835 24.0359,-0.503 31.7805,-2.487 z"
     id="path3715"
     inkscape:connector-curvature="0" />
  <path
     style="opacity:1;fill:#082b4c;fill-opacity:1;stroke:#3984f3;stroke-width:1.04330683;stroke-miterlimit:4;stroke-dasharray:none;stroke-opacity:0"
     d="m 2944.5769,2969.3901 c -16.4288,-1.9049 -30.1002,-6.8576 -42.8632,-15.5248 -18.5371,-12.5885 -42.8935,-39.3634 -54.8595,-60.3069 -16.1386,-28.2475 -20.8607,-73.4676 -12.1913,-116.7561 6.6524,-33.2167 18.1399,-55.593 39.3313,-76.6144 21.8979,-21.7221 48.9162,-36.0378 80.8744,-42.8519 13.7601,-2.9329 44.2125,-2.6759 56.6426,0.476 15.8238,4.0154 25.1977,9.1567 43.1777,23.681 10.1435,8.194 13.1293,3.0917 15.2398,-26.0458 0.522,-7.2087 4.7086,-102.0324 4.7252,-107.0312 0.01,-1.6993 2.3395,-1.8229 34.3812,-1.8229 h 34.3752 v 209.3551 209.3552 l -2.3433,0.503 c -1.2888,0.265 -11.2502,1.2246 -22.1356,2.1052 -21.4692,1.7386 -29.6371,1.1754 -36.9142,-2.5361 -4.7641,-2.4302 -5.9989,-3.8997 -9.9489,-11.8363 -1.7764,-3.5679 -4.0607,-6.6202 -5.2664,-7.0333 -3.1219,-1.0696 -8.8433,1.2472 -18.1232,7.3387 -12.8009,8.4041 -29.0778,13.1312 -53.6262,15.5739 -13.0382,1.2964 -39.168,1.2813 -50.4752,-0.03 z m 63.2606,-63.6046 c 12.096,-4.2637 26.5081,-11.5219 33.4137,-16.8272 8.4079,-6.46 16.2837,-16.6027 21.9764,-28.3019 10.8911,-22.3831 12.912,-45.8203 6.1981,-71.8752 -2.8876,-11.2048 -11.9898,-29.6081 -19.2065,-38.8309 -30.7181,-39.2591 -84.9033,-38.8233 -123.0002,0.99 -13.0136,13.5995 -19.7332,25.0991 -24.6757,42.2287 -1.9729,6.8413 -2.3433,10.6431 -2.3509,24.2589 -0.01,19.1233 1.3455,25.4744 8.7866,41.1458 13.7836,29.0219 40.5755,48.0828 72.189,51.3593 9.0758,0.941 14.7345,0.08 26.6703,-4.1469 z"
     id="path3717"
     inkscape:connector-curvature="0" />
  <path
     style="opacity:1;fill:#082b4c;fill-opacity:1;stroke:#3984f3;stroke-width:1.04330683;stroke-miterlimit:4;stroke-dasharray:none;stroke-opacity:0"
     d="m 3363.8327,2969.0068 c -3.5112,-0.767 -7.7314,-2.1014 -9.3747,-2.9631 -4.0449,-2.1166 -9.0905,-7.6245 -11.6172,-12.6796 -7.8954,-15.7969 -134.5451,-383.4983 -132.969,-386.0484 2.1997,-3.5596 25.2283,-6.0847 55.6603,-6.1036 l 19.2711,-0.01 48.9581,142.1595 c 26.9272,78.1874 49.1928,142.1635 49.4793,142.1684 0.302,0.01 2.8384,-7.8391 5.6716,-17.4315 2.8346,-9.5925 8.3625,-27.5188 12.2887,-39.8363 3.9262,-12.3178 13.2457,-42.3178 20.7096,-66.6667 7.4641,-24.3492 21.6215,-70.3963 31.4611,-102.3273 l 17.89,-58.0562 h 3.6473 c 2.0069,0 12.4834,0.91 23.2845,2.0269 24.2684,2.5108 27.6276,3.9556 35.1927,15.1377 10.7732,15.9237 16.7962,33.3713 61.3107,177.5984 26.4189,85.5973 27.2187,88.0543 28.1182,86.3853 1.3153,-2.434 43.1191,-120.748 71.9324,-203.5725 l 26.8161,-77.0837 24.3288,0.181 c 23.7026,0.178 34.8748,1.3334 42.9479,4.4408 2.8195,1.0855 2.9556,1.4079 2.3169,5.556 -3.8245,24.7974 -34.8582,119.1177 -91.4158,277.8409 -26.1196,73.302 -32.7088,90.836 -38.0508,101.2535 -7.3701,14.3728 -13.4797,18.5738 -26.8842,18.4857 -7.9169,-0.04 -49.3239,-3.6132 -50.0114,-4.2992 -0.439,-0.438 -40.9062,-134.8165 -70.9013,-235.4415 -5.0725,-17.0166 -9.4734,-30.6985 -9.7799,-30.4044 -0.302,0.302 -19.798,61.3262 -43.3146,135.6264 l -42.7574,135.0921 -23.9093,0.189 c -16.7735,0.113 -25.8153,-0.227 -30.2963,-1.2094 z"
     id="path3719"
     inkscape:connector-curvature="0" />
  <path
     style="opacity:1;fill:#082b4c;fill-opacity:1;stroke:#3984f3;stroke-width:1.04330683;stroke-miterlimit:4;stroke-dasharray:none;stroke-opacity:0"
     d="m 3859.48,2815.8645 v -154.6874 h 34.3748 34.3752 v 154.6874 154.6878 h -34.3752 -34.3748 z"
     id="path3721"
     inkscape:connector-curvature="0" />
  <path
     style="opacity:1;fill:#082b4c;fill-opacity:1;stroke:#3984f3;stroke-width:1.04330683;stroke-miterlimit:4;stroke-dasharray:none;stroke-opacity:0"
     d="m 3882.9493,2616.7216 c -7.7869,-4.049 -21.541,-18.4925 -25.4906,-26.7682 -6.514,-13.6493 -4.9436,-28.1659 4.4235,-40.8902 14.5939,-19.8246 41.6852,-24.217 60.0129,-9.7299 9.4775,7.4917 14.3856,16.3048 15.5599,27.9414 2.0939,20.7321 -5.6798,37.3705 -21.0913,45.1499 -15.298,7.7224 -24.5416,8.911 -33.4144,4.297 z"
     id="path3723"
     inkscape:connector-curvature="0" />
  <path
     style="opacity:1;fill:#082b4c;fill-opacity:1;stroke:#3984f3;stroke-width:1.04330683;stroke-miterlimit:4;stroke-dasharray:none;stroke-opacity:0"
     d="m 4039.9354,2816.5036 v -155.3265 l 16.927,0.04 c 21.0085,0.04 36.6104,1.3947 42.285,3.6662 5.8715,2.3508 9.538,6.8742 9.538,11.7709 0,4.8416 2.468,8.4854 5.749,8.4854 4.1813,0 13.5425,-3.9942 35.3896,-15.0999 11.4622,-5.8265 25.0591,-11.9611 30.2155,-13.6324 8.544,-2.7704 10.6673,-3.0387 23.9584,-3.0274 16.5407,0.01 23.3212,1.5685 45.267,10.388 42.1799,16.9516 58.605,40.873 65.0994,94.8099 3.239,26.8871 3.8332,44.0579 4.419,127.344 l 0.593,84.6353 h -35.034 -35.0343 l -0.01,-79.4271 c -0.01,-43.914 -0.491,-86.1805 -1.0848,-94.5313 -2.2223,-31.2975 -6.9585,-44.6676 -20.197,-57.0312 -20.8377,-19.46 -46.1692,-23.209 -72.2665,-10.6949 -17.5154,8.3988 -32.5092,21.0527 -38.1603,32.2046 -7.4601,14.7216 -8.8026,31.5397 -12.4691,156.2139 -0.949,32.2908 -1.7575,47.4826 -2.5549,47.9739 -0.639,0.393 -13.0024,1.7688 -27.4723,3.0539 -14.4699,1.285 -28.3007,2.6003 -30.7359,2.9253 l -4.4269,0.59 z"
     id="path3725"
     inkscape:connector-curvature="0" />
  <path
     style="opacity:1;fill:#082b4c;fill-opacity:1;stroke:#3984f3;stroke-width:1.04330683;stroke-miterlimit:4;stroke-dasharray:none;stroke-opacity:0"
     d="m 4529.7191,2968.9777 c -40.8733,-5.2108 -67.7276,-19.3198 -89.3363,-46.9357 -25.5806,-32.6929 -39.3449,-77.4591 -37.6101,-122.3233 0.949,-24.5612 5.4535,-43.158 14.8845,-61.4581 7.4665,-14.4888 22.19,-32.6264 37.3822,-46.0501 37.4264,-33.0698 80.013,-44.7731 122.5947,-33.6908 13.5579,3.5301 21.0674,6.7801 47.1677,20.422 12.5469,6.5575 23.1938,12.079 23.6602,12.2702 0.465,0.189 0.847,-33.442 0.847,-74.7398 v -75.0866 h 34.8957 34.896 v 214.6873 214.6873 l -26.3021,-0.465 c -29.1674,-0.514 -34.4856,-1.4437 -39.7365,-6.9225 -2.4227,-2.5285 -3.0803,-4.3866 -3.7682,-10.6662 -0.654,-5.957 -1.3304,-8.0073 -3.1294,-9.4628 -4.8386,-3.9179 -10.5763,-1.8822 -27.8192,9.88 -12.6195,8.6064 -19.1728,11.4667 -33.0989,14.4454 -12.7778,2.7326 -39.7689,3.4167 -55.5284,1.4097 z m 50.3032,-60.5269 c 23.2275,-5.6719 53.0064,-33.9239 62.9583,-59.7301 3.5603,-9.2292 6.3296,-23.3821 6.3296,-32.3354 0,-8.4763 -2.6041,-22.337 -5.9959,-31.912 -12.4807,-35.2339 -43.8346,-60.6573 -78.3352,-63.5184 -25.9873,-2.1543 -56.696,12.4127 -74.7179,35.4452 -19.1947,24.5317 -24.8194,58.4235 -14.7405,88.8189 8.132,24.523 23.831,41.6122 50.352,54.8092 21.0905,10.495 36.1016,12.8299 54.1496,8.4226 z"
     id="path3727"
     inkscape:connector-curvature="0" />
</svg>
