<?xml version="1.0" standalone="no"?>
<!DOCTYPE svg PUBLIC "-//W3C//DTD SVG 20010904//EN"
 "http://www.w3.org/TR/2001/REC-SVG-20010904/DTD/svg10.dtd">
<svg version="1.0" xmlns="http://www.w3.org/2000/svg"
 width="268.000000pt" height="350.000000pt" viewBox="0 0 268.000000 350.000000"
 preserveAspectRatio="xMidYMid meet">

<g transform="translate(0.000000,350.000000) scale(0.100000,-0.100000)"
fill="#000000" stroke="none">
<path d="M1202 3450 c-167 -23 -340 -86 -480 -172 -116 -72 -291 -244 -367
-361 -425 -656 -119 -1528 623 -1777 348 -116 727 -64 1043 146 93 61 250 217
310 309 138 208 209 436 209 669 0 570 -396 1055 -957 1171 -93 20 -293 27
-381 15z m158 -107 c0 -16 -129 -760 -170 -981 -20 -109 -33 -131 -155 -277
l-25 -30 -32 35 c-18 20 -61 66 -95 104 l-62 68 -86 -72 c-47 -40 -87 -71 -88
-69 -2 2 -28 57 -57 122 -30 64 -57 117 -60 117 -14 0 -90 -150 -90 -176 0
-25 6 -19 41 44 22 39 44 72 48 72 4 0 32 -52 61 -115 30 -64 57 -118 61 -120
4 -3 44 25 90 62 l82 66 96 -103 96 -103 79 101 78 102 24 -35 23 -34 -133
-233 c-72 -128 -145 -257 -161 -285 -27 -51 -30 -53 -72 -53 -42 0 -43 -1 -43
-34 l0 -34 -65 6 -65 5 0 -37 c0 -36 0 -37 -22 -21 -41 28 -140 129 -180 182
-198 267 -263 609 -178 938 27 103 114 281 180 369 173 227 419 375 690 415
41 6 86 13 100 15 64 9 90 6 90 -11z m240 -20 c58 -14 110 -28 116 -32 9 -4
-17 -111 -86 -357 -53 -193 -103 -373 -109 -401 -12 -48 -15 -51 -49 -57 -20
-3 -51 -8 -69 -12 l-31 -6 9 38 c37 158 129 576 129 588 0 13 -58 41 -68 32
-9 -9 10 -26 29 -26 10 0 19 -6 19 -13 0 -7 -31 -148 -69 -312 -38 -165 -68
-302 -65 -306 2 -4 -10 -9 -26 -12 -68 -14 -96 -100 -47 -144 37 -34 44 -35
137 -17 50 9 93 15 95 13 2 -2 1 -34 -2 -70 l-6 -67 -30 34 -30 35 23 24 c13
14 21 27 18 30 -10 10 -46 -10 -72 -42 l-27 -32 30 -16 c17 -8 38 -26 46 -39
15 -23 9 -37 -171 -392 -103 -203 -188 -370 -188 -371 -1 -1 -89 -3 -196 -4
l-195 -1 0 28 c0 29 1 29 63 32 61 3 62 3 62 32 0 28 3 30 39 30 l38 0 136
242 c75 134 154 272 176 308 l40 65 -25 26 c-14 14 -27 41 -29 60 -3 19 30
231 73 474 l78 440 34 -3 35 -2 -32 14 c-36 16 -39 27 -24 103 5 26 12 65 16
86 l6 38 47 -6 c26 -4 94 -18 152 -32z m212 -75 c15 -12 12 -33 -34 -233 -28
-121 -54 -224 -59 -229 -6 -6 -13 -6 -19 0 -14 14 69 474 85 474 6 0 18 -6 27
-12z m140 -77 c451 -302 613 -879 382 -1370 -106 -225 -280 -400 -508 -511
-200 -97 -407 -128 -631 -94 -115 18 -303 81 -380 129 l-40 24 178 1 177 0
182 365 c148 296 184 360 189 341 5 -19 -29 -95 -157 -343 -90 -175 -164 -321
-164 -325 0 -7 154 -34 246 -43 81 -8 231 10 299 36 135 50 219 167 219 303 0
55 -5 81 -23 115 -32 62 -103 134 -183 187 -49 33 -67 51 -64 63 3 9 14 77 26
151 11 74 23 149 26 165 4 23 3 26 -5 15 -8 -11 -10 -7 -5 16 4 20 0 43 -12
65 -14 29 -15 32 -1 21 9 -7 19 -28 22 -45 8 -34 143 -220 155 -212 4 2 30 43
59 90 29 47 56 85 59 85 4 0 43 -115 87 -255 43 -140 83 -251 87 -247 4 4 57
86 116 181 88 141 107 178 104 202 -4 27 -16 11 -116 -150 -61 -99 -114 -177
-117 -173 -4 4 -42 118 -84 255 -43 136 -81 247 -84 247 -3 0 -30 -39 -59 -85
-29 -47 -57 -85 -60 -85 -4 0 -45 49 -91 109 -82 108 -83 111 -76 153 4 24 18
56 31 71 31 36 39 69 26 105 -8 23 0 72 40 248 57 252 54 244 67 244 5 0 42
-22 83 -49z m-282 -287 c-17 -92 -34 -133 -47 -120 -2 2 11 55 29 119 17 64
33 115 35 113 2 -2 -5 -52 -17 -112z m42 -141 c20 -18 24 -73 6 -91 -19 -19
-55 -14 -72 10 -21 29 -20 40 5 72 24 30 36 32 61 9z m-99 -108 c9 -18 9 -19
-6 -6 -10 7 -17 23 -16 35 0 14 2 16 6 6 3 -8 10 -24 16 -35z m-10 -96 c-4
-12 0 -25 8 -30 11 -7 9 -9 -6 -9 -11 0 -30 -3 -41 -6 -22 -6 -22 -6 -6 51 16
56 16 57 33 36 10 -12 15 -30 12 -42z m77 49 c0 -29 -22 -89 -31 -86 -13 4
-13 8 -5 58 4 26 12 40 21 40 8 0 15 -6 15 -12z m-7 -136 c25 -22 22 -68 -5
-86 -25 -15 -271 -66 -321 -66 -17 0 -39 7 -49 17 -22 20 -23 66 -2 84 19 16
321 78 344 71 8 -3 23 -12 33 -20z m19 -114 c-5 -7 -15 -53 -22 -101 -8 -48
-17 -90 -23 -94 -22 -13 -29 18 -22 99 7 84 7 85 39 95 17 6 33 11 35 12 2 0
-1 -5 -7 -11z m-90 -35 c-5 -10 -12 -45 -15 -77 -5 -52 -17 -75 -39 -76 -6 0
-1 94 7 133 2 10 -3 17 -13 18 -10 1 -3 5 13 9 50 13 57 12 47 -7z m16 -189
c29 -20 31 -79 3 -94 -30 -16 -59 -12 -81 10 -26 26 -25 54 2 80 26 24 46 25
76 4z m-45 -131 c9 -3 31 0 47 7 28 12 34 10 86 -25 61 -40 140 -110 154 -134
7 -14 -14 -16 -206 -13 -118 1 -214 5 -214 7 0 3 19 43 42 90 32 64 46 84 58
79 8 -3 23 -9 33 -11z m321 -218 c5 -13 -26 -15 -244 -15 -218 0 -249 2 -244
15 9 23 479 23 488 0z m14 -92 c-11 -149 -101 -244 -265 -278 -108 -23 -356
-14 -402 15 -9 5 10 52 68 169 l81 161 261 0 262 0 -5 -67z"/>
<path d="M1400 3038 c-6 -35 -16 -66 -22 -69 -12 -8 -38 -115 -30 -123 12 -13
41 -5 45 12 14 50 16 71 8 76 -5 3 -2 39 6 82 8 42 12 78 10 80 -2 3 -10 -24
-17 -58z"/>
<path d="M1273 2205 c29 -26 51 -24 68 6 9 18 6 19 -43 19 l-53 -1 28 -24z"/>
<path d="M1222 1838 c-16 -16 -15 -33 4 -48 22 -19 54 12 38 37 -14 22 -27 26
-42 11z"/>
<path d="M1037 1594 c-13 -13 -7 -55 9 -61 24 -9 51 23 38 45 -12 19 -36 27
-47 16z"/>
<path d="M1597 2443 c-14 -14 -6 -53 13 -63 15 -8 24 -6 40 10 16 16 18 25 10
40 -10 19 -49 27 -63 13z"/>
<path d="M1309 2379 c-9 -18 -7 -25 10 -43 17 -16 25 -18 39 -10 22 14 27 41
12 59 -18 22 -48 18 -61 -6z"/>
<path d="M2566 686 c-80 -11 -91 -15 -117 -43 -51 -57 -73 -185 -49 -275 6
-21 26 -50 47 -68 33 -29 41 -32 85 -28 100 10 155 112 111 205 -40 86 -162
97 -218 21 -16 -23 -17 -22 -10 12 18 88 49 115 138 125 47 5 75 13 88 26 15
15 27 43 17 38 -2 -1 -43 -7 -92 -13z m-14 -167 c28 -15 48 -69 48 -129 0 -41
-5 -56 -25 -75 -31 -32 -48 -31 -87 4 -28 25 -32 35 -36 92 -3 54 -1 68 18 92
23 29 48 34 82 16z"/>
<path d="M45 673 c43 -11 45 -18 45 -198 0 -180 -2 -187 -45 -198 -11 -2 38
-5 110 -6 148 -1 195 9 225 46 29 37 27 97 -5 128 -13 14 -32 25 -41 25 -12 0
-8 8 15 29 59 55 33 148 -47 171 -20 5 -91 9 -157 9 -66 -1 -111 -4 -100 -6z
m252 -47 c28 -33 30 -79 3 -106 -24 -24 -55 -32 -106 -28 l-39 3 -3 69 c-4 97
-3 99 65 94 46 -4 61 -10 80 -32z m-35 -166 c44 -13 68 -43 68 -85 0 -57 -69
-95 -146 -81 l-34 7 0 78 c0 43 3 81 7 84 10 10 63 8 105 -3z"/>
<path d="M1450 669 c13 -6 28 -15 32 -22 4 -7 8 -84 8 -172 0 -88 -4 -165 -8
-172 -4 -7 -19 -16 -32 -22 -18 -7 47 -10 216 -10 146 -1 253 -5 272 -12 32
-11 72 -63 72 -93 0 -9 5 -16 10 -16 6 0 10 28 10 64 0 59 -2 64 -24 70 -32 8
-36 28 -36 191 0 165 4 181 39 194 20 7 8 9 -59 10 -80 0 -84 -1 -62 -16 21
-15 22 -20 22 -195 l0 -179 -72 3 -73 3 -3 160 c-3 182 -1 198 30 213 19 9 7
11 -62 11 -81 0 -84 0 -57 -15 l27 -15 -2 -177 -3 -177 -70 0 -70 0 -3 175
c-2 171 -2 175 20 192 22 17 21 18 -62 17 -66 0 -80 -2 -60 -10z"/>
<path d="M470 533 c0 -10 -3 -28 -6 -40 -4 -14 -2 -23 5 -23 6 0 11 6 11 14 0
24 30 46 61 46 l30 0 -3 -117 c-3 -114 -4 -118 -28 -130 -22 -11 -16 -13 55
-12 66 0 75 2 53 11 l-28 10 0 119 0 119 28 0 c29 0 62 -26 62 -48 0 -7 4 -12
8 -12 5 0 6 17 3 38 l-6 37 -123 3 c-111 2 -122 1 -122 -15z"/>
<path d="M842 530 c-44 -27 -75 -96 -66 -146 9 -50 57 -102 101 -110 84 -16
152 37 161 126 11 114 -101 188 -196 130z m105 -24 c25 -21 28 -32 31 -99 4
-66 2 -77 -17 -96 -29 -29 -57 -26 -91 7 -49 49 -53 165 -7 197 30 21 52 19
84 -9z"/>
<path d="M1125 532 c-36 -17 -38 -19 -17 -24 22 -6 22 -8 22 -176 l0 -170 -27
-10 c-23 -9 -14 -11 52 -11 71 -1 77 1 55 12 -22 11 -25 20 -28 75 -3 60 -2
63 17 53 49 -26 112 -6 148 48 18 26 23 48 23 93 0 55 -3 63 -34 94 -42 42
-82 45 -125 8 l-31 -26 0 26 c0 31 -3 31 -55 8z m146 -32 c48 -26 64 -121 29
-177 -16 -27 -26 -33 -54 -33 -50 0 -66 28 -66 111 0 61 3 70 26 88 30 24 38
25 65 11z"/>
<path d="M2152 530 c-56 -34 -77 -115 -48 -183 19 -47 49 -69 100 -74 42 -5
48 -3 81 30 19 19 35 45 35 57 0 20 -2 19 -26 -9 -29 -35 -59 -39 -104 -16
-34 18 -50 43 -50 79 l0 26 95 0 95 0 -6 28 c-16 72 -104 104 -172 62z m86
-16 c12 -8 22 -24 22 -35 0 -17 -7 -19 -60 -19 -66 0 -77 13 -40 50 24 24 48
25 78 4z"/>
</g>
</svg>
